<svg width="32" height="32" viewBox="0 0 32 32" fill="none" xmlns="http://www.w3.org/2000/svg">
<path d="M1.35951 1.06238H30.6395C30.7277 1.06835 30.8107 1.1061 30.8733 1.16861C30.9358 1.23112 30.9735 1.31416 30.9795 1.40236V30.6823C30.9735 30.7705 30.9358 30.8536 30.8733 30.9161C30.8107 30.9786 30.7277 31.0163 30.6395 31.0223H1.35951C1.27131 31.0163 1.18827 30.9786 1.12576 30.9161C1.06325 30.8536 1.02551 30.7705 1.01953 30.6823V1.40236C1.06201 1.23244 1.18959 1.06238 1.35951 1.06238Z" fill="black"/>
<path d="M28.8548 31.9998H3.14477C2.73153 32.0008 2.32218 31.9201 1.94021 31.7624C1.55825 31.6047 1.2112 31.373 0.918991 31.0808C0.626786 30.7886 0.395182 30.4416 0.237476 30.0596C0.0797699 29.6776 -0.000931224 29.2683 8.80637e-06 28.8551V3.14507C-0.00097026 2.73183 0.0796972 2.32246 0.237367 1.94048C0.395037 1.55851 0.626605 1.21144 0.918783 0.919208C1.21096 0.626976 1.55799 0.395335 1.93994 0.237593C2.32189 0.079851 2.73123 -0.000892879 3.14447 8.11863e-06H28.8545C29.2677 -0.000931911 29.6771 0.0797692 30.059 0.237475C30.441 0.395181 30.788 0.626786 31.0802 0.918991C31.3725 1.2112 31.6041 1.55825 31.7618 1.94021C31.9195 2.32218 32.0002 2.73153 31.9992 3.14477V28.8548C32.0038 29.269 31.9256 29.68 31.7692 30.0635C31.6128 30.4471 31.3813 30.7956 31.0884 31.0886C30.7955 31.3815 30.4471 31.613 30.0635 31.7695C29.68 31.926 29.269 32.0043 28.8548 31.9998ZM3.18695 2.08236C2.54948 2.08236 2.08206 2.59239 2.03958 3.22972V28.9397C2.03895 29.0906 2.0682 29.2401 2.12564 29.3795C2.18307 29.519 2.26757 29.6458 2.37424 29.7524C2.4809 29.8591 2.60764 29.9436 2.74713 30.001C2.88662 30.0585 3.0361 30.0877 3.18695 30.0871H28.8969C29.0456 30.0869 29.1927 30.0567 29.3294 29.9984C29.4662 29.9402 29.5898 29.8549 29.6929 29.7479C29.796 29.6408 29.8765 29.5141 29.9296 29.3752C29.9826 29.2364 30.0072 29.0883 30.0018 28.9397V3.22972C29.9982 2.9338 29.8819 2.6504 29.6766 2.43723C29.4713 2.22406 29.1925 2.09715 28.8969 2.08236H3.18695Z" fill="#0761E2"/>
<path d="M9.60414 10.7636H5.43945V8.29883H16.3611V10.7636H12.1964V23.3851H9.60414V10.7636Z" fill="white"/>
<path d="M26.5601 13.1855L21.5031 21.0049H26.3477V23.4272H17.126L22.183 15.6079H17.466V13.1855H26.5601Z" fill="white"/>
</svg>
